<svg xmlns="http://www.w3.org/2000/svg" width="24" height="24"><path fill="#FFF" d="M12 6.263c1.868 0 2.09.007 2.828.04.682.032 1.053.146 1.3.242.303.112.578.29.804.523.232.226.411.501.523.805.096.247.21.617.241 1.3.034.737.041.959.041 2.827 0 1.869-.007 2.09-.04 2.828-.032.682-.146 1.053-.242 1.3a2.317 2.317 0 0 1-1.328 1.327c-.246.096-.617.21-1.3.241-.737.034-.958.041-2.827.041s-2.09-.007-2.828-.04c-.682-.032-1.053-.146-1.3-.242a2.168 2.168 0 0 1-.804-.523 2.168 2.168 0 0 1-.523-.805c-.096-.246-.21-.617-.241-1.3-.034-.737-.041-.958-.041-2.827 0-1.868.007-2.09.04-2.828.032-.682.146-1.052.242-1.3.112-.303.29-.578.523-.804.226-.232.5-.411.805-.523.246-.096.617-.21 1.3-.241.737-.034.959-.04 2.827-.04zm0-1.26c-1.9 0-2.139.007-2.885.041-.745.034-1.254.153-1.699.326a3.43 3.43 0 0 0-1.24.807 3.43 3.43 0 0 0-.807 1.24c-.172.444-.29.953-.325 1.698-.034.746-.042.985-.042 2.885s.008 2.139.042 2.885c.034.745.153 1.254.326 1.699.175.467.45.89.807 1.24.35.355.772.63 1.24.806.444.173.953.292 1.698.326.746.034.985.042 2.885.042s2.139-.008 2.885-.042c.745-.034 1.254-.153 1.699-.326a3.578 3.578 0 0 0 2.047-2.046c.172-.445.29-.954.325-1.699.034-.746.042-.985.042-2.885s-.008-2.139-.042-2.885c-.034-.745-.152-1.254-.325-1.699a3.43 3.43 0 0 0-.808-1.24 3.43 3.43 0 0 0-1.24-.807c-.444-.172-.953-.29-1.698-.325-.746-.034-.985-.042-2.885-.042zm3.735 4.101a.84.84 0 1 0 0-1.68.84.84 0 0 0 0 1.68zM12 8.407a3.593 3.593 0 1 0 0 7.186 3.593 3.593 0 0 0 0-7.186zM12 0c6.627 0 12 5.373 12 12s-5.373 12-12 12S0 18.627 0 12 5.373 0 12 0zm0 9.667a2.333 2.333 0 1 0 0 4.666 2.333 2.333 0 0 0 0-4.666z"/></svg>