<svg xmlns="http://www.w3.org/2000/svg" width="24" height="24" fill="#FFF"><path d="M12.035 2C17.543 2.02 22 6.489 22 12c0 5.434-4.333 9.855-9.734 9.996L12 22l-.266-.004C6.334 21.856 2 17.434 2 12c0-5.33 4.175-9.702 9.465-9.986l.265-.01Zm2.72 13.396h-5.51c.488 2.99 1.575 5.089 2.662 5.204l.093.005c1.117 0 2.253-2.134 2.756-5.209Zm5.154 0h-3.735c-.293 1.958-.84 3.636-1.578 4.811a8.632 8.632 0 0 0 5.313-4.811Zm-12.084 0H4.091a8.628 8.628 0 0 0 5.312 4.81c-.737-1.174-1.284-2.852-1.578-4.81Zm-.161-5.401H3.63a8.629 8.629 0 0 0-.001 4.006h4.035a24.047 24.047 0 0 1 0-4.006Zm7.268 0H9.068a21.922 21.922 0 0 0 0 4.006h5.865a21.924 21.924 0 0 0 0-4.006Zm5.438 0h-4.034a24.044 24.044 0 0 1 0 4.006h4.035A8.629 8.629 0 0 0 20.605 12c0-.69-.082-1.362-.235-2.005ZM9.404 3.793l-.031.01A8.627 8.627 0 0 0 4.093 8.6h3.733c.294-1.956.84-3.633 1.578-4.807Zm2.594-.398-.091.005c-1.087.115-2.173 2.213-2.662 5.2h5.51c-.475-2.916-1.518-4.992-2.57-5.188l-.092-.012-.095-.005Zm2.597.399.083.134c.696 1.167 1.213 2.79 1.496 4.671l3.733.001a8.628 8.628 0 0 0-5.312-4.806Z"/></svg>