<svg xmlns="http://www.w3.org/2000/svg" width="24" height="24"><path fill="#FFF" d="M11.915 0c6.58 0 11.914 5.334 11.914 11.915 0 6.58-5.334 11.914-11.914 11.914S0 18.495 0 11.915 5.335 0 11.915 0zm3.027 7.227a2.848 2.848 0 0 0-2.774 3.497 8.084 8.084 0 0 1-5.87-2.976 2.848 2.848 0 0 0 .881 3.802 2.828 2.828 0 0 1-1.29-.356v.036c0 1.38.982 2.53 2.285 2.792a2.838 2.838 0 0 1-1.286.05 2.851 2.851 0 0 0 2.66 1.977 5.714 5.714 0 0 1-4.216 1.18 8.056 8.056 0 0 0 4.365 1.28c5.238 0 8.103-4.34 8.103-8.104 0-.123-.003-.246-.008-.368a5.775 5.775 0 0 0 1.421-1.474c-.51.226-1.06.38-1.636.448a2.856 2.856 0 0 0 1.253-1.576c-.55.327-1.16.564-1.809.691a2.845 2.845 0 0 0-2.08-.899z"/></svg>