<?xml version="1.0" encoding="utf-8"?>
<!-- Generator: Adobe Illustrator 26.0.1, SVG Export Plug-In . SVG Version: 6.00 Build 0)  -->
<svg version="1.1" id="Large_Club" xmlns="http://www.w3.org/2000/svg" xmlns:xlink="http://www.w3.org/1999/xlink" x="0px" y="0px"
	 viewBox="0 0 283.5 186.4" style="enable-background:new 0 0 283.5 186.4;" xml:space="preserve">
<style type="text/css">
	.st0{fill:#FF6600;}
</style>
<g>
	<path class="st0" d="M263.8,10.5c5,0,9.1,4.2,9.1,9.4v146.6c0,5.2-4.1,9.4-9.1,9.4H19.6c-5,0-9.1-4.2-9.1-9.4V19.9
		c0-5.2,4.1-9.4,9.1-9.4H263.8 M263.8,0H19.6C8.8,0,0,8.9,0,19.9v146.6c0,11,8.8,19.9,19.6,19.9h244.2c10.8,0,19.6-8.9,19.6-19.9
		V19.9C283.5,8.9,274.7,0,263.8,0L263.8,0z"/>
	<g>
		<path class="st0" d="M233.2,60.4c0.5,0.4,1.2,0.2,2-0.3c-0.5-0.7-1.1-1.3-1.5-1.8C232.5,59,232.8,60,233.2,60.4z"/>
		<path class="st0" d="M221.6,57.4h-0.8l0,2.6h0.8c0.9,0,1.4-0.5,1.4-1.4C223,57.8,222.5,57.4,221.6,57.4z"/>
		<path class="st0" d="M222.7,53c0-0.8-0.5-1.2-1.3-1.2h-0.6l0,2.4l0.6,0C222.3,54.3,222.7,53.8,222.7,53z"/>
		<path class="st0" d="M234.6,52.6c-0.5,0-0.8,0.5-0.8,0.9c0,0.4,0.3,0.8,0.7,1.3c0.7-0.5,0.9-0.9,0.9-1.2
			C235.4,53.1,235,52.6,234.6,52.6z"/>
		<path class="st0" d="M247.5,52.1c-1.1,0-1.7,1.2-1.7,3.7c0,2.5,0.5,3.7,1.7,3.7c1.1,0,1.7-1.2,1.7-3.7
			C249.2,53.3,248.7,52.1,247.5,52.1z"/>
		<path class="st0" d="M210.7,24v48.8h48.8V24H210.7z M223.1,63.4l-7.1,0l0-14.8l6.9,0c3.1,0,4.6,1.5,4.6,3.6c0,1.6-0.4,2.7-2.1,3.5
			c1.6,0.5,2.5,1.7,2.5,3.5C227.9,62,225.7,63.4,223.1,63.4z M237.2,63.4c0-0.3-0.2-0.6-0.4-0.9c-1.2,0.8-2.3,1.1-3.2,1.1
			c-2.4,0.1-4.4-1.3-4.2-3.8c0.1-1.4,1.2-2.6,2.4-3.5c-0.6-0.8-1.2-1.7-1.2-2.7c0-1.7,1.5-3.3,4.1-3.3c2.5,0,3.9,1.6,3.9,3.1
			c0,1.4-0.8,2.5-2.1,3.3c0.4,0.5,0.8,0.9,1.2,1.3c0.3-0.2,0.5-0.5,0.8-0.7l1.8,2.1c-0.3,0.3-0.6,0.6-0.9,0.9c0.7,1.1,1.2,2.1,1.3,3
			L237.2,63.4z M247.5,63.4c-4.2,0-6.6-2.8-6.6-7.5c0-4.5,2.4-7.5,6.6-7.5c4.5,0,7,2.7,6.8,7.4c-0.1,2.2-0.8,3.9-1.8,4.9l2.1,0
			l0,2.7L247.5,63.4z"/>
	</g>
	<g>
		<path class="st0" d="M22.8,128.6c0-22,14.5-34.6,34.7-34.6c12.8,0,28.6,4.8,31.8,24.1H74.9c-2.3-8.8-9-11.5-17.5-11.5
			c-12.2,0-20.9,7.6-20.9,22c0,14.3,8.7,22,20.9,22c8.5,0,15.2-2.7,17.5-11.5h14.3c-3.2,19.3-19,24.1-31.8,24.1
			C37.3,163.1,22.8,150.5,22.8,128.6"/>
		<path class="st0" d="M97.8,95.1h10.7c1,0,1.9,0.9,1.9,1.9V162H97.8V95.1z"/>
		<path class="st0" d="M120,143.3v-29h12.6v26.5c0,6.6,2.3,11.3,9.3,11.3c7,0,10-4.4,10-11.3v-26.5h10.7c1,0,1.9,0.9,1.9,1.9V162
			h-12.6v-4.4c-2.6,3.3-6.7,5.5-13.6,5.5C126.6,163.1,120,155.3,120,143.3"/>
		<path class="st0" d="M222.4,138.1c0,17.8-11.7,25-22.3,25c-6.9,0-11.4-2.6-13.5-5.3v4.1H174V95.1h10.7c1,0,1.9,0.9,1.9,1.9v21.3
			c2.1-2.7,6.6-5.3,13.5-5.3C210.8,113.1,222.4,120.4,222.4,138.1 M209.8,138.1c0-6.9-3.9-13.7-12-13.7c-8.1,0-12,6.8-12,13.7
			c0,6.9,3.9,13.7,12,13.7C205.9,151.8,209.8,145,209.8,138.1"/>
	</g>
</g>
</svg>
