<?xml version="1.0" encoding="utf-8"?>
<!-- Generator: Adobe Illustrator 26.0.1, SVG Export Plug-In . SVG Version: 6.00 Build 0)  -->
<svg version="1.1" id="Home_Delivery" xmlns="http://www.w3.org/2000/svg" xmlns:xlink="http://www.w3.org/1999/xlink" x="0px"
	 y="0px" viewBox="0 0 341.3 200.5" style="enable-background:new 0 0 341.3 200.5;" xml:space="preserve">
<style type="text/css">
	.st0{fill:#FF6600;}
</style>
<g>
	<path class="st0" d="M105.5,200.5c-13.2,0-23.9-10.7-23.9-23.9s10.7-23.9,23.9-23.9s23.9,10.7,23.9,23.9S118.8,200.5,105.5,200.5z
		 M105.5,163.1c-7.4,0-13.4,6-13.4,13.4s6,13.4,13.4,13.4s13.4-6,13.4-13.4S113,163.1,105.5,163.1z"/>
	<path class="st0" d="M290,200.5c-13.2,0-23.9-10.7-23.9-23.9s10.7-23.9,23.9-23.9s23.9,10.7,23.9,23.9S303.2,200.5,290,200.5z
		 M290,163.1c-7.4,0-13.4,6-13.4,13.4s6,13.4,13.4,13.4s13.4-6,13.4-13.4S297.4,163.1,290,163.1z"/>
	<path class="st0" d="M336.1,125.8h-58.7c-2.9,0-5.2-2.4-5.2-5.2V74.3c0-2.9,2.4-5.2,5.2-5.2h25.2c1.7,0,3.3,0.8,4.3,2.2l33.5,46.3
		c1.2,1.6,1.3,3.7,0.4,5.5C339.9,124.7,338,125.8,336.1,125.8z M282.6,115.3h43.2l-25.9-35.8h-17.3V115.3z"/>
	<path class="st0" d="M92.9,10.5H5.2C2.4,10.5,0,8.1,0,5.2S2.4,0,5.2,0h87.7c2.9,0,5.2,2.4,5.2,5.2S95.8,10.5,92.9,10.5z"/>
	<path class="st0" d="M105.5,75.9H35.1c-2.9,0-5.2-2.4-5.2-5.2s2.4-5.2,5.2-5.2h70.5c2.9,0,5.2,2.4,5.2,5.2S108.4,75.9,105.5,75.9z"
		/>
	<path class="st0" d="M243.9,181.8H124.2c-2.9,0-5.2-2.4-5.2-5.2s2.4-5.2,5.2-5.2h114.4V33.8H68.5v137.6h18.3c2.9,0,5.2,2.4,5.2,5.2
		s-2.4,5.2-5.2,5.2H63.3c-2.9,0-5.2-2.4-5.2-5.2V28.5c0-2.9,2.4-5.2,5.2-5.2h180.6c2.9,0,5.2,2.4,5.2,5.2v148.1
		C249.1,179.5,246.8,181.8,243.9,181.8z"/>
	<path class="st0" d="M336.1,181.8h-27.4c-2.9,0-5.2-2.4-5.2-5.2s2.4-5.2,5.2-5.2h22.1v-49.1l-39.4-54.4h-42.3v103.5h22.1
		c2.9,0,5.2,2.4,5.2,5.2s-2.4,5.2-5.2,5.2h-27.4c-2.9,0-5.2-2.4-5.2-5.2v-114c0-2.9,2.4-5.2,5.2-5.2h50.2c1.7,0,3.3,0.8,4.3,2.2
		l42,58c0.6,0.9,1,2,1,3.1v56C341.3,179.5,339,181.8,336.1,181.8z"/>
</g>
</svg>
