<?xml version="1.0" encoding="utf-8"?>
<!-- Generator: Adobe Illustrator 26.0.1, SVG Export Plug-In . SVG Version: 6.00 Build 0)  -->
<svg version="1.1" id="Click__x2B__Collect" xmlns="http://www.w3.org/2000/svg" xmlns:xlink="http://www.w3.org/1999/xlink"
	 x="0px" y="0px" viewBox="0 0 245.8 283.3" style="enable-background:new 0 0 245.8 283.3;" xml:space="preserve">
<style type="text/css">
	.st0{fill:#FF6600;}
</style>
<g>
	<g>
		<path class="st0" d="M151.4,76.6c-2.9,0-5.2-2.4-5.2-5.2V52.2c0-23-18.7-41.7-41.7-41.7c-23,0-41.7,18.7-41.7,41.7v19.1
			c0,2.9-2.4,5.2-5.2,5.2s-5.2-2.4-5.2-5.2V52.2C52.2,23.4,75.6,0,104.4,0c28.8,0,52.2,23.4,52.2,52.2v19.1
			C156.6,74.3,154.3,76.6,151.4,76.6z"/>
		<path class="st0" d="M183.2,242.1c-34.5,0-62.6-28.1-62.6-62.6s28.1-62.6,62.6-62.6s62.6,28.1,62.6,62.6S217.8,242.1,183.2,242.1z
			 M183.2,127.4c-28.7,0-52.1,23.4-52.1,52.1s23.4,52.1,52.1,52.1s52.1-23.4,52.1-52.1S212,127.4,183.2,127.4z"/>
		<g>
			<path class="st0" d="M174.3,201.2c-0.4,0-0.7,0-1.1-0.1c-1.7-0.4-3.2-1.6-3.8-3.3l-15.3-40.6c-0.7-1.9-0.3-4.1,1.2-5.5
				c1.4-1.5,3.6-2,5.5-1.3L202,165c1.7,0.6,3,2,3.4,3.8c0.4,1.8-0.1,3.6-1.4,4.9l-26,26C177.1,200.6,175.7,201.2,174.3,201.2z
				 M168,164.1l8.4,22.4l14.3-14.3L168,164.1z"/>
		</g>
	</g>
	<g>
		<g>
			<line class="st0" x1="108.6" y1="174.9" x2="69" y2="174.9"/>
			<path class="st0" d="M108.6,180.2H69c-2.9,0-5.2-2.4-5.2-5.2s2.4-5.2,5.2-5.2h39.7c2.9,0,5.2,2.4,5.2,5.2
				S111.5,180.2,108.6,180.2z"/>
		</g>
		<g>
			<line class="st0" x1="114.9" y1="207.4" x2="92.4" y2="229.9"/>
			<path class="st0" d="M92.4,235.1c-1.3,0-2.7-0.5-3.7-1.5c-2.1-2-2.1-5.4,0-7.4l22.5-22.5c2-2.1,5.4-2.1,7.4,0
				c2.1,2,2.1,5.4,0,7.4l-22.5,22.5C95.1,234.6,93.7,235.1,92.4,235.1z"/>
		</g>
		<g>
			<line class="st0" x1="93.7" y1="121.4" x2="114.9" y2="142.5"/>
			<path class="st0" d="M114.9,147.7c-1.3,0-2.7-0.5-3.7-1.5L90,125.1c-2.1-2-2.1-5.4,0-7.4c2-2.1,5.4-2.1,7.4,0l21.1,21.1
				c2.1,2,2.1,5.4,0,7.4C117.5,147.2,116.2,147.7,114.9,147.7z"/>
		</g>
	</g>
</g>
<path class="st0" d="M203.5,283.3H5.2c-1.4,0-2.8-0.6-3.8-1.6c-1-1-1.5-2.5-1.4-3.9l11-202c0.2-2.8,2.5-5,5.2-5h176.3
	c2.8,0,5.1,2.2,5.2,5l2.6,47.3c0.2,2.9-2.1,5.4-5,5.5c-2.9,0.1-5.4-2.1-5.5-5l-2.3-42.4H21.2L10.8,272.8H198l-2.1-38.5
	c-0.2-2.9,2.1-5.4,5-5.5c2.9-0.2,5.4,2.1,5.5,5l2.4,44c0.1,1.4-0.4,2.8-1.4,3.9C206.4,282.7,205,283.3,203.5,283.3z"/>
<g>
	<path class="st0" d="M207.4,208.9c-1.3,0-2.7-0.5-3.7-1.5L183.3,187c-2.1-2-2.1-5.4,0-7.4c2-2.1,5.4-2.1,7.4,0l20.4,20.4
		c2.1,2,2.1,5.4,0,7.4C210.1,208.4,208.7,208.9,207.4,208.9z"/>
</g>
</svg>
