<?xml version="1.0" encoding="utf-8"?>
<!-- Generator: Adobe Illustrator 26.0.1, SVG Export Plug-In . SVG Version: 6.00 Build 0)  -->
<svg version="1.1" id="Returns" xmlns="http://www.w3.org/2000/svg" xmlns:xlink="http://www.w3.org/1999/xlink" x="0px" y="0px"
	 viewBox="0 0 254.4 283.5" style="enable-background:new 0 0 254.4 283.5;" xml:space="preserve">
<style type="text/css">
	.st0{fill:#FF6600;}
</style>
<g>
	<path class="st0" d="M222.4,216.5H44.6c-2.8,0-5.1-2.2-5.2-5l-4-90.5c-0.1-1.4,0.5-2.8,1.5-3.9s2.4-1.6,3.8-1.6h208.7
		c1.7,0,3.2,0.8,4.2,2.1s1.3,3,0.8,4.6l-26.8,90.5C226.8,215,224.7,216.5,222.4,216.5z M49.6,206h168.9l23.7-80H46L49.6,206z"/>
	<path class="st0" d="M162.3,93.3H75.6c-2.9,0-5.2-2.4-5.2-5.2s2.4-5.2,5.2-5.2h86.6c13.6,0,24.7-11.1,24.7-24.7
		s-11.1-24.7-24.7-24.7H53.1c-2.9,0-5.2-2.4-5.2-5.3s2.4-5.2,5.2-5.2h109.1c19.4,0,35.2,15.8,35.2,35.2S181.7,93.3,162.3,93.3z"/>
	<path class="st0" d="M53.1,56.3c-1,0-1.9-0.3-2.7-0.8L13,32.6c-1.6-1-2.5-2.7-2.5-4.5s1-3.5,2.5-4.5L50.4,0.8c1.6-1,3.7-1,5.3-0.1
		c1.7,0.9,2.7,2.7,2.7,4.6V51c0,1.9-1,3.7-2.7,4.6C54.9,56,54,56.3,53.1,56.3z M25.8,28.1l22.1,13.5v-27L25.8,28.1z"/>
	<path class="st0" d="M202.7,283.5c-13.8,0-24.9-11.2-24.9-24.9c0-13.8,11.2-24.9,24.9-24.9c13.8,0,24.9,11.2,24.9,24.9
		C227.6,272.3,216.4,283.5,202.7,283.5z M202.7,244.1c-8,0-14.4,6.5-14.4,14.4c0,8,6.5,14.4,14.4,14.4c8,0,14.4-6.5,14.4-14.4
		C217.1,250.6,210.7,244.1,202.7,244.1z"/>
</g>
<g>
	<path class="st0" d="M183.5,259.6H65.4c-2.9,0-5.2-2.4-5.2-5.2s2.4-5.2,5.2-5.2h118.1c2.9,0,5.2,2.4,5.2,5.2
		S186.4,259.6,183.5,259.6z"/>
	<path class="st0" d="M44.5,239.9c-2.8,0-5.1-2.2-5.2-5L33.8,93.3H5.2C2.4,93.3,0,91,0,88.1s2.4-5.2,5.2-5.2h33.6
		c2.8,0,5.1,2.2,5.2,5l5.7,146.6c0.1,2.9-2.1,5.3-5,5.5C44.7,239.9,44.6,239.9,44.5,239.9z"/>
</g>
<path class="st0" d="M45.7,279.2c-13.8,0-24.9-11.2-24.9-24.9c0-13.8,11.2-24.9,24.9-24.9c13.8,0,24.9,11.2,24.9,24.9
	C70.7,268.1,59.5,279.2,45.7,279.2z M45.7,239.9c-8,0-14.4,6.5-14.4,14.4c0,8,6.5,14.4,14.4,14.4c8,0,14.4-6.5,14.4-14.4
	C60.2,246.3,53.7,239.9,45.7,239.9z"/>
</svg>
