    <svg
      xmlns="http://www.w3.org/2000/svg"
      width="48"
      height="48"
      viewBox="0 0 48 48"
    >
      <path
        fill="#323C41"
        fill-rule="nonzero"
        d="M30.4,2H6v44h38V14.6L30.4,2z M31,5.3l9.4,8.7H32c-0.6,0-1-0.4-1-1V5.3z M8,44V4h21v9c0,1.7,1.3,3,3,3h10v28H8z"
      />
      <path
        fill="#323C41"
        fill-rule="nonzero"
        d="M31.5,21H15.2v18h18V27.8l-2,2V37h-7.2l0,0L23,37h-5.9v-5l0,0l0-1.5V29l0,0v-6h12.3C29.5,23,31.5,21,31.5,21z"
      />
      <path
        fill="#323C41"
        fill-rule="nonzero"
        d="M22.8,32.3L20,29.5l-1.4,1.4l4.2,4.2l12-12l-1.4-1.4L22.8,32.3z"
      />
    </svg>