<svg xmlns="http://www.w3.org/2000/svg" width="24" height="24"><path fill="#FFF" d="M11.915 0c6.58 0 11.914 5.335 11.914 11.915 0 6.58-5.334 11.915-11.914 11.915S0 18.495 0 11.915C0 5.335 5.335 0 11.915 0zm5.688 9.338c-.402-2.924-3.32-4.413-6.428-4.065-2.458.275-4.908 2.264-5.01 5.105-.064 1.735.429 3.037 2.08 3.403.715-1.264-.231-1.542-.379-2.458-.606-3.746 4.322-6.303 6.9-3.687 1.786 1.813.61 7.385-2.268 6.807-2.756-.554 1.35-4.99-.85-5.861-1.79-.708-2.739 2.165-1.891 3.592-.497 2.455-1.569 4.767-1.134 7.846 1.405-1.02 1.88-2.973 2.268-5.01.706.429 1.085.875 1.986.945 3.323.257 5.18-3.317 4.726-6.617z"/></svg>