    <svg
      role="img"
      width="24"
      height="24"
      viewBox="0 0 24 24"
      xmlns="http://www.w3.org/2000/svg"
    >
      <g stroke="none" stroke-width="1" fill="none" fill-rule="evenodd">
        <path
          d="M12.50464,3 L17.933676,6.46781263 L12.50464,9.93620293 L12.504,7.033 L12.2882496,7.03753349 C9.20041982,7.15400609 6.73303979,9.69439686 6.73303979,12.8101606 C6.73303979,16.0006868 9.31931284,18.5875376 12.5098391,18.5875376 C15.4935559,18.5875376 17.9492733,16.2883715 18.254866,13.3861075 C18.8602746,13.3855298 19.561578,13.3936173 19.9959933,13.3936173 C19.6892453,17.2600291 16.4548154,20.3199997 12.5098391,20.3199997 C8.3620972,20.3199997 5,16.9579025 5,12.8101606 C5,8.66466955 8.35938485,5.30303498 12.5048192,5.30032313 L12.50464,3 Z"
          fill="#323C41"
          transform="translate(12.497997, 11.660000) scale(-1, 1) translate(-12.497997, -11.660000) "
        />
      </g>
    </svg>